<?xml version="1.0" encoding="UTF-8"?>
<!DOCTYPE svg PUBLIC "-//W3C//DTD SVG 1.1//EN" "http://www.w3.org/Graphics/SVG/1.1/DTD/svg11.dtd">
<svg xmlns="http://www.w3.org/2000/svg" version="1.1" width="2000px" height="917px" style="shape-rendering:geometricPrecision; text-rendering:geometricPrecision; image-rendering:optimizeQuality; fill-rule:evenodd; clip-rule:evenodd" xmlns:xlink="http://www.w3.org/1999/xlink">
<g><path style="opacity:0.992" fill="#ffffff" d="M 1571.5,7.5 C 1585.61,7.9698 1597.11,13.6365 1606,24.5C 1662.49,104.818 1718.49,185.485 1774,266.5C 1774.82,268.788 1775.49,271.122 1776,273.5C 1776.33,280.167 1776.67,286.833 1777,293.5C 1777.5,402.499 1777.67,511.499 1777.5,620.5C 1835.2,620.028 1892.86,620.528 1950.5,622C 1974.68,630.848 1984.51,648.015 1980,673.5C 1976.07,685.426 1968.57,694.26 1957.5,700C 1953.94,701.408 1950.28,702.408 1946.5,703C 1933.5,703.333 1920.5,703.667 1907.5,704C 1846.18,768.122 1784.51,831.955 1722.5,895.5C 1716.91,901.13 1710.25,904.963 1702.5,907C 1468.19,908.163 1233.85,908.663 999.5,908.5C 765.145,908.663 530.812,908.163 296.5,907C 288.755,904.963 282.088,901.13 276.5,895.5C 214.488,831.955 152.822,768.122 91.5,704C 78.5,703.667 65.5,703.333 52.5,703C 27.5781,697.059 16.0781,681.226 18,655.5C 22.3965,635.77 34.5632,624.27 54.5,621C 115.169,620.833 175.836,620.333 236.5,619.5C 219.667,585.833 202.833,552.167 186,518.5C 176.705,495.156 182.205,476.323 202.5,462C 208.861,460.229 215.195,458.395 221.5,456.5C 225.414,400.629 253.248,362.296 305,341.5C 307.138,315.809 312.471,290.809 321,266.5C 338.672,219.739 372.172,201.906 421.5,213C 467.484,215.263 511.818,224.93 554.5,242C 575.679,250.663 594.179,263.163 610,279.5C 613.833,284.667 617.667,289.833 621.5,295C 661.245,297.947 699.245,307.614 735.5,324C 745.409,328.869 754.909,334.369 764,340.5C 768.994,316.529 778.327,294.529 792,274.5C 810.588,253.806 833.421,247.306 860.5,255C 895.444,262.888 924.611,280.388 948,307.5C 982.948,351.172 1000.11,401.172 999.5,457.5C 1028.5,457.333 1057.5,457.5 1086.5,458C 1104.68,461.177 1116.18,471.677 1121,489.5C 1121.33,436.167 1121.67,382.833 1122,329.5C 1122.86,316.319 1127.86,304.986 1137,295.5C 1188.33,236.833 1239.67,178.167 1291,119.5C 1297.8,111.697 1305.96,105.864 1315.5,102C 1395.17,71.6667 1474.83,41.3333 1554.5,11C 1560.22,9.4322 1565.89,8.26553 1571.5,7.5 Z M 1554.5,99.5 C 1555.68,99.281 1556.68,99.6143 1557.5,100.5C 1592.5,150.5 1627.5,200.5 1662.5,250.5C 1610.28,275.193 1557.78,299.526 1505,323.5C 1466.68,270.214 1428.85,216.547 1391.5,162.5C 1445.84,141.279 1500.18,120.279 1554.5,99.5 Z M 1322.5,209.5 C 1348.69,246.688 1375.02,283.854 1401.5,321C 1349.19,313.956 1296.86,306.623 1244.5,299C 1271.08,269.591 1297.08,239.757 1322.5,209.5 Z M 398.5,295.5 C 440.561,295.613 481.227,303.113 520.5,318C 531.449,322.05 540.949,328.217 549,336.5C 551.787,357.97 563.621,371.137 584.5,376C 623.731,375.513 661.398,382.846 697.5,398C 713.937,405.442 728.437,415.609 741,428.5C 748.452,436.739 752.619,446.406 753.5,457.5C 603.833,457.5 454.167,457.5 304.5,457.5C 306.002,438.5 315.668,425.667 333.5,419C 342.237,418.105 350.903,416.772 359.5,415C 374.249,408.924 383.082,398.091 386,382.5C 385.54,352.792 389.707,323.792 398.5,295.5 Z M 1692.5,328.5 C 1694.5,425.494 1695.16,522.828 1694.5,620.5C 1640.17,620.5 1585.83,620.5 1531.5,620.5C 1531.17,547.83 1531.5,475.164 1532.5,402.5C 1585.92,377.785 1639.26,353.118 1692.5,328.5 Z M 851.5,338.5 C 865.63,343.447 877.464,351.78 887,363.5C 907.259,391.447 917.426,422.78 917.5,457.5C 890.5,457.5 863.5,457.5 836.5,457.5C 836.139,423.825 839.306,390.492 846,357.5C 847.375,350.997 849.208,344.663 851.5,338.5 Z M 1204.5,377.5 C 1285.85,388.74 1367.18,400.073 1448.5,411.5C 1448.5,481.167 1448.5,550.833 1448.5,620.5C 1367.17,620.5 1285.83,620.5 1204.5,620.5C 1204.5,539.5 1204.5,458.5 1204.5,377.5 Z M 1120.5,507.5 C 1121.5,544.996 1121.83,582.663 1121.5,620.5C 1103.49,620.833 1085.49,620.5 1067.5,619.5C 1084.33,585.833 1101.17,552.167 1118,518.5C 1119.31,514.93 1120.14,511.263 1120.5,507.5 Z M 289.5,540.5 C 531,539.334 772.666,539.167 1014.5,540C 1001.04,566.422 987.705,592.922 974.5,619.5C 759.5,620.833 544.5,620.833 329.5,619.5C 316.392,592.95 303.059,566.617 289.5,540.5 Z M 206.5,704.5 C 735,703.333 1263.67,703.167 1792.5,704C 1753.5,744.333 1714.5,784.667 1675.5,825C 1450.17,825.167 1224.83,825.333 999.5,825.5C 774.167,825.333 548.833,825.167 323.5,825C 284.633,784.634 245.633,744.467 206.5,704.5 Z"/></g>
</svg>
